<?xml version="1.0" encoding="utf-8"?>
<!-- Generator: Adobe Illustrator 26.5.1, SVG Export Plug-In . SVG Version: 6.00 Build 0)  -->
<svg version="1.1" id="레이어_1" xmlns="http://www.w3.org/2000/svg" xmlns:xlink="http://www.w3.org/1999/xlink" x="0px"
	 y="0px" viewBox="0 0 841.9 2197.7" style="enable-background:new 0 0 841.9 2197.7;" xml:space="preserve">
<style type="text/css">
	.st0{fill:none;stroke:#0D7AE7;stroke-width:30;stroke-linecap:round;stroke-miterlimit:10;}
</style>
<path class="st0" d="M-11.2,10.3c0,0,112.9,44.4,169.2,147.1c48.1,87.6,14.8,136.2,86.4,253.2c45.2,73.8,151,169.2,270.2,65.6
	c91.3-68.6,37.4-102.8,12.2-94.3c-15.9,5.4-59.1,31.8-16.1,182.8c24.4,85.9,68.5,241.1,58.5,388.1
	c-10.4,153.2-110.1,286.5-255,337.1c-138.4,48.4-145.8-39.6-127.5-65.4c22.1-31.2,97.6-10.4,37.7,135.3S89.9,1708.9,76,1797.1
	c-29.9,189.7,35.1,307.9,286.3,330.5s508.8,6.5,508.8,6.5"/>
</svg>
